<svg width="24" height="23" viewBox="0 0 24 23" fill="none" xmlns="http://www.w3.org/2000/svg">
<path d="M8.61539 19.2555C2.46154 20.8577 2.46154 16.5851 0 16.051L8.61539 19.2555ZM17.2308 22.46V18.3262C17.2769 17.8168 17.1976 17.3048 16.9982 16.8241C16.7987 16.3434 16.4836 15.9051 16.0738 15.5383C19.9385 15.1644 24 13.8933 24 8.06118C23.9997 6.56984 23.3387 5.1357 22.1538 4.05558C22.7149 2.75083 22.6752 1.30865 22.0431 0.0286193C22.0431 0.0286193 20.5908 -0.345236 17.2308 1.60949C14.4099 0.945978 11.4363 0.945978 8.61539 1.60949C5.25538 -0.345236 3.80308 0.0286193 3.80308 0.0286193C3.17092 1.30865 3.13125 2.75083 3.69231 4.05558C2.49862 5.14371 1.83695 6.59082 1.84615 8.09322C1.84615 13.8826 5.90769 15.1538 9.77231 15.5703C9.36738 15.9335 9.05509 16.3665 8.85576 16.8414C8.65644 17.3162 8.57453 17.8221 8.61539 18.3262V22.46" fill="#641BFF"/>
</svg>
