<svg width="20" height="21" viewBox="0 0 20 21" fill="none" xmlns="http://www.w3.org/2000/svg">
<path d="M6.92385 17.8415C1.97824 19.326 1.97824 15.3672 0 14.8723L6.92385 17.8415ZM13.8477 20.8106V16.9804C13.8848 16.5085 13.8211 16.034 13.6608 15.5886C13.5005 15.1433 13.2472 14.7371 12.9179 14.3972C16.0238 14.0508 19.2879 12.8731 19.2879 7.4692C19.2876 6.08738 18.7564 4.75856 17.8042 3.75776C18.2551 2.54882 18.2232 1.21255 17.7152 0.0265176C17.7152 0.0265176 16.548 -0.319884 13.8477 1.4913C11.5807 0.87651 9.19091 0.87651 6.92385 1.4913C4.22355 -0.319884 3.05639 0.0265176 3.05639 0.0265176C2.54835 1.21255 2.51647 2.54882 2.96737 3.75776C2.00804 4.76598 1.47629 6.10682 1.48368 7.49889C1.48368 12.8632 4.74779 14.0409 7.85363 14.4269C7.52821 14.7634 7.27723 15.1647 7.11704 15.6046C6.95685 16.0446 6.89102 16.5133 6.92385 16.9804V20.8106" fill="#301948"/>
</svg>
