<svg width="21" height="20" viewBox="0 0 21 20" fill="none" xmlns="http://www.w3.org/2000/svg">
<path d="M14.082 6.03522C15.6826 6.03522 17.2177 6.67106 18.3495 7.80286C19.4813 8.93466 20.1171 10.4697 20.1171 12.0703V19.1113H16.0937V12.0703C16.0937 11.5368 15.8817 11.0251 15.5045 10.6478C15.1272 10.2706 14.6155 10.0586 14.082 10.0586C13.5485 10.0586 13.0368 10.2706 12.6595 10.6478C12.2822 11.0251 12.0703 11.5368 12.0703 12.0703V19.1113H8.04688V12.0703C8.04688 10.4697 8.68272 8.93466 9.81452 7.80286C10.9463 6.67106 12.4814 6.03522 14.082 6.03522Z" fill="#641BFF"/>
<path d="M4.02341 7.04102H0V19.1112H4.02341V7.04102Z" fill="#641BFF"/>
<path d="M2.01219 4.02341C3.12323 4.02341 4.0239 3.12274 4.0239 2.0117C4.0239 0.900671 3.12323 0 2.01219 0C0.901159 0 0.000488281 0.900671 0.000488281 2.0117C0.000488281 3.12274 0.901159 4.02341 2.01219 4.02341Z" fill="#641BFF"/>
</svg>
