<svg width="22" height="18" viewBox="0 0 22 18" fill="none" xmlns="http://www.w3.org/2000/svg">
<path d="M21.5613 0.00988614C20.6228 0.673973 19.5837 1.18189 18.484 1.51409C17.8937 0.833274 17.1093 0.350732 16.2367 0.131723C15.3642 -0.0872868 14.4456 -0.0321964 13.6053 0.289543C12.765 0.611282 12.0434 1.18415 11.5382 1.93066C11.0331 2.67717 10.7686 3.56131 10.7807 4.4635V5.44664C9.05835 5.49144 7.35171 5.10825 5.81275 4.33121C4.2738 3.55417 2.9503 2.4074 1.96012 0.993023C1.96012 0.993023 -1.96012 9.84126 6.86043 13.7738C4.84202 15.1482 2.43757 15.8373 0 15.7401C8.82055 20.6558 19.6012 15.7401 19.6012 4.434C19.6003 4.16015 19.5741 3.88698 19.5228 3.618C20.5231 2.62847 21.2289 1.37911 21.5613 0.00988614Z" fill="#301948"/>
</svg>
