<svg width="30" height="23" viewBox="0 0 30 23" fill="none" xmlns="http://www.w3.org/2000/svg">
<path d="M29.7 0.012744C28.4072 0.868803 26.9759 1.52355 25.461 1.95177C24.648 1.07415 23.5674 0.45212 22.3655 0.1698C21.1636 -0.112519 19.8983 -0.0415037 18.7408 0.373243C17.5833 0.787989 16.5894 1.52646 15.8935 2.48877C15.1977 3.45107 14.8334 4.5908 14.85 5.75379V7.02113C12.4776 7.07888 10.1267 6.58493 8.00686 5.58326C5.88701 4.5816 4.06393 3.10332 2.7 1.28008C2.7 1.28008 -2.7 12.6861 9.45 17.7555C6.66971 19.5272 3.35766 20.4155 0 20.2902C12.15 26.6269 27 20.2902 27 5.71577C26.9988 5.36276 26.9626 5.01061 26.892 4.66388C28.2698 3.38829 29.2421 1.77778 29.7 0.012744Z" fill="#641BFF"/>
</svg>
